<svg xmlns="http://www.w3.org/2000/svg" xmlns:xlink="http://www.w3.org/1999/xlink" width="64" zoomAndPan="magnify" viewBox="0 0 48 48" height="64" preserveAspectRatio="xMidYMid meet" version="1.2"><defs><clipPath id="bac4b7c594"><path d="M 2.144531 1.652344 L 45.855469 1.652344 L 45.855469 45.367188 L 2.144531 45.367188 Z M 2.144531 1.652344 "/></clipPath><clipPath id="e84cbf8456"><path d="M 24 1.652344 C 11.929688 1.652344 2.144531 11.4375 2.144531 23.511719 C 2.144531 35.582031 11.929688 45.367188 24 45.367188 C 36.070312 45.367188 45.855469 35.582031 45.855469 23.511719 C 45.855469 11.4375 36.070312 1.652344 24 1.652344 Z M 24 1.652344 "/></clipPath><clipPath id="bf95284210"><path d="M 7.835938 13 L 40 13 L 40 33 L 7.835938 33 Z M 7.835938 13 "/></clipPath></defs><g id="7d3c2ac7f0"><g clip-rule="nonzero" clip-path="url(#bac4b7c594)"><g clip-rule="nonzero" clip-path="url(#e84cbf8456)"><path style=" stroke:none;fill-rule:nonzero;fill:#ffd700;fill-opacity:1;" d="M 2.144531 1.652344 L 45.855469 1.652344 L 45.855469 45.367188 L 2.144531 45.367188 Z M 2.144531 1.652344 "/></g></g><g clip-rule="nonzero" clip-path="url(#bf95284210)"><path style=" stroke:none;fill-rule:nonzero;fill:#ff3b30;fill-opacity:1;" d="M 38.902344 26.851562 C 34.6875 22.636719 30.472656 18.425781 26.257812 14.210938 C 24.988281 12.9375 22.863281 12.972656 21.601562 14.234375 C 17.386719 18.449219 13.171875 22.664062 8.960938 26.875 C 5.957031 29.878906 10.632812 34.519531 13.640625 31.511719 L 23.941406 21.210938 C 27.382812 24.652344 30.824219 28.09375 34.265625 31.535156 C 37.269531 34.539062 41.910156 29.859375 38.902344 26.851562 Z M 38.902344 26.851562 "/></g></g></svg>