<svg xmlns="http://www.w3.org/2000/svg" xmlns:xlink="http://www.w3.org/1999/xlink" width="591" zoomAndPan="magnify" viewBox="0 0 443.25 165.000002" height="220" preserveAspectRatio="xMidYMid meet" version="1.2"><defs><clipPath id="61d6f4419c"><path d="M 83.398438 26.328125 L 138 26.328125 L 138 60 L 83.398438 60 Z M 83.398438 26.328125 "/></clipPath></defs><g id="f44ce430d7"><g style="fill:#ffd700;fill-opacity:1;"><g transform="translate(9.232261, 124.868229)"><path style="stroke:none" d="M 30.296875 1.855469 C 48.289062 1.855469 58.039062 -9.054688 58.039062 -24.144531 L 58.039062 -82.648438 L 42.484375 -82.648438 L 42.484375 -24.492188 C 42.484375 -16.25 37.726562 -11.957031 30.179688 -11.957031 C 22.75 -11.957031 17.992188 -16.25 17.992188 -24.492188 L 17.992188 -29.484375 L 3.019531 -29.484375 L 3.019531 -24.144531 C 3.019531 -8.242188 13.117188 1.855469 30.296875 1.855469 Z M 30.296875 1.855469 "/></g></g><g style="fill:#ffd700;fill-opacity:1;"><g transform="translate(77.600218, 124.868229)"><path style="stroke:none" d="M 45.15625 -26.351562 C 45.15625 -15.671875 38.191406 -11.257812 31.804688 -11.257812 C 24.261719 -11.257812 20.546875 -14.972656 20.546875 -22.636719 L 20.546875 -59.898438 L 5.921875 -59.898438 L 5.921875 -20.199219 C 5.921875 -5.921875 14.394531 1.394531 26.8125 1.394531 C 35.402344 1.394531 41.671875 -2.902344 45.617188 -8.707031 L 45.617188 0 L 59.78125 0 L 59.78125 -59.898438 L 45.15625 -59.898438 Z M 45.15625 -26.351562 "/></g></g><g style="fill:#ffd700;fill-opacity:1;"><g transform="translate(148.521817, 124.868229)"><path style="stroke:none" d="M 29.484375 1.625 C 46.199219 1.625 56.066406 -5.109375 56.066406 -17.179688 C 56.066406 -27.511719 49.683594 -32.851562 35.289062 -35.402344 L 27.742188 -36.566406 C 21.242188 -37.726562 17.761719 -39.46875 17.761719 -43.878906 C 17.761719 -48.171875 21.125 -50.84375 28.207031 -50.84375 C 35.753906 -50.84375 40.511719 -48.636719 40.859375 -40.976562 L 54.671875 -40.976562 C 54.207031 -53.28125 46.664062 -61.289062 28.207031 -61.289062 C 12.1875 -61.289062 3.367188 -54.441406 3.367188 -43.179688 C 3.367188 -32.964844 10.097656 -27.277344 22.984375 -25.074219 L 29.832031 -23.914062 C 38.886719 -22.402344 41.554688 -20.3125 41.554688 -16.019531 C 41.554688 -11.492188 38.191406 -8.820312 29.714844 -8.820312 C 21.011719 -8.820312 17.179688 -11.492188 16.367188 -19.035156 L 2.089844 -19.035156 C 3.019531 -4.527344 12.421875 1.625 29.484375 1.625 Z M 29.484375 1.625 "/></g></g><g style="fill:#ffd700;fill-opacity:1;"><g transform="translate(210.737831, 124.868229)"><path style="stroke:none" d="M 37.144531 -59.898438 L 25.304688 -59.898438 L 25.304688 -77.308594 L 10.796875 -77.308594 L 10.796875 -59.898438 L 1.507812 -59.898438 L 1.507812 -48.519531 L 10.796875 -48.519531 L 10.796875 -14.859375 C 10.796875 -3.832031 16.832031 0.347656 29.484375 0.347656 C 31.804688 0.347656 34.589844 0.230469 37.144531 0 L 37.144531 -11.257812 L 32.152344 -11.257812 C 27.277344 -11.257812 25.304688 -12.535156 25.304688 -16.484375 L 25.304688 -48.519531 L 37.144531 -48.519531 Z M 37.144531 -59.898438 "/></g></g><g style="fill:#ffd700;fill-opacity:1;"><g transform="translate(255.774989, 124.868229)"><path style="stroke:none" d="M 32.851562 -71.386719 L 37.957031 -71.386719 L 37.957031 -82.648438 C 35.867188 -82.878906 32.734375 -82.996094 30.414062 -82.996094 C 16.019531 -82.996094 10.796875 -74.988281 10.796875 -64.425781 L 10.796875 -59.898438 L 1.507812 -59.898438 L 1.507812 -48.519531 L 10.796875 -48.519531 L 10.796875 0 L 25.304688 0 L 25.304688 -48.519531 L 37.609375 -48.519531 L 37.609375 -59.898438 L 25.304688 -59.898438 L 25.304688 -64.191406 C 25.304688 -68.835938 27.625 -71.386719 32.851562 -71.386719 Z M 32.851562 -71.386719 "/></g></g><g style="fill:#ffd700;fill-opacity:1;"><g transform="translate(299.999552, 124.868229)"><path style="stroke:none" d="M 20.546875 0 L 20.546875 -82.648438 L 5.921875 -82.648438 L 5.921875 0 Z M 20.546875 0 "/></g></g><g style="fill:#ffd700;fill-opacity:1;"><g transform="translate(332.384699, 124.868229)"><path style="stroke:none" d="M 20.429688 -66.863281 L 20.429688 -80.558594 L 5.921875 -80.558594 L 5.921875 -66.863281 Z M 20.546875 0 L 20.546875 -59.898438 L 5.921875 -59.898438 L 5.921875 0 Z M 20.546875 0 "/></g></g><g style="fill:#ffd700;fill-opacity:1;"><g transform="translate(364.073345, 124.868229)"><path style="stroke:none" d="M 39.117188 -61.289062 C 30.414062 -61.289062 24.027344 -57.574219 19.964844 -51.308594 L 19.964844 -59.898438 L 5.921875 -59.898438 L 5.921875 22.75 L 20.546875 22.75 L 20.546875 -7.777344 C 24.609375 -1.972656 30.761719 1.394531 39.117188 1.394531 C 55.601562 1.394531 65.933594 -10.910156 65.933594 -29.949219 C 65.933594 -48.984375 55.601562 -61.289062 39.117188 -61.289062 Z M 35.636719 -10.679688 C 26.117188 -10.679688 20.199219 -17.296875 20.199219 -29.949219 C 20.199219 -42.601562 26.117188 -49.21875 35.636719 -49.21875 C 45.15625 -49.21875 51.074219 -43.066406 51.074219 -30.414062 C 51.074219 -17.761719 45.15625 -10.679688 35.636719 -10.679688 Z M 35.636719 -10.679688 "/></g></g><g clip-rule="nonzero" clip-path="url(#61d6f4419c)"><path style=" stroke:none;fill-rule:nonzero;fill:#ff3b30;fill-opacity:1;" d="M 136.164062 50.003906 C 129.007812 42.84375 121.847656 35.6875 114.691406 28.527344 C 112.527344 26.363281 108.921875 26.421875 106.777344 28.570312 C 99.617188 35.726562 92.460938 42.886719 85.300781 50.046875 C 80.203125 55.144531 88.144531 63.027344 93.257812 57.914062 L 110.753906 40.417969 C 116.601562 46.265625 122.445312 52.109375 128.292969 57.957031 C 133.394531 63.058594 141.277344 55.113281 136.164062 50.003906 Z M 136.164062 50.003906 "/></g></g></svg>